<?xml version="1.0" standalone="no"?>
<!DOCTYPE svg PUBLIC "-//W3C//DTD SVG 20010904//EN"
 "http://www.w3.org/TR/2001/REC-SVG-20010904/DTD/svg10.dtd">
<svg version="1.0" xmlns="http://www.w3.org/2000/svg"
 width="2000.000000pt" height="2000.000000pt" viewBox="0 0 2000.000000 2000.000000"
 preserveAspectRatio="xMidYMid meet">
<metadata>
Created by potrace 1.11, written by Peter Selinger 2001-2013
</metadata>
<g transform="translate(0.000000,2000.000000) scale(0.100000,-0.100000)"
fill="#000000" stroke="none">
<path d="M4321 13079 l-3081 -3081 3082 -3083 3083 -3083 1291 1290 c710 710
1295 1291 1299 1291 5 0 589 -581 1299 -1291 l1291 -1291 3083 3083 3083 3083
-3069 3069 c-1687 1688 -3076 3075 -3084 3082 -14 11 -182 -152 -1307 -1277
-710 -710 -1293 -1291 -1296 -1291 -2 0 -585 581 -1294 1290 -709 710 -1292
1290 -1294 1290 -3 0 -1392 -1387 -3086 -3081z"/>
</g>
</svg>
