<svg viewBox="0 0 246.32 208" xmlns="http://www.w3.org/2000/svg"><path d="M225.15 17.92H20.8A18.71 18.71 0 0 0 2.15 36.57v121.7a18.7 18.7 0 0 0 18.65 18.65h20l21.77 29.49 11.21-29.49h151.37a18.7 18.7 0 0 0 18.65-18.65V36.57a18.71 18.71 0 0 0-18.65-18.65z" fill="#3faaac"/><path d="M118.17 22.44c16.61 28.87 33.17 57.51 49.59 86.23 9 15.64 3.93 31.24-9.66 39-14.35 8.2-31.88 3-41-12.84Q94.2 95.27 71.42 55.66c-2.3-4-.74-5.82-6.52-5.17-2.6.29-6.44.67-9.84-5-2.91-4.89 1.24-10.05 3.64-11.53 16.47-10.14 31.82-19.79 49.15-28.34 6-3 11.68 1.15 12.88 3.71 2.85 6.06-1.22 11.31-2.56 13.11zm-43.52 22.9c7.35 12.73 14 24.43 20.88 36 1 1.71 3.49 3.6 5.32 3.64 14.26.3 28.53.16 44.61.16l-34.85-60.33zM65 63.72c3.94 7 7.87 11.92 9.47 17.53 1 3.36-.53 9.56-3.06 11.23-3.07 2-9.34 2.16-12.47.24-2.64-1.62-4.53-7.82-3.62-11.13C56.86 75.93 60.87 71 65 63.72z" fill="#005573"/><path d="M74.65 45.34l36-20.53 34.85 60.28c-16.08 0-30.35.14-44.61-.16-1.83 0-4.29-1.93-5.32-3.64C88.61 69.77 82 58.07 74.65 45.34z" fill="#fff"/></svg>