<svg width="101" height="101" viewBox="0 0 101 101" xmlns="http://www.w3.org/2000/svg"><title>Group</title><g fill-rule="nonzero" fill="none"><path d="M92.513 8.548c10.746 10.747 10.746 28.17 0 38.916L47.25 92.728c-10.746 10.746-28.17 10.746-38.915 0-10.746-10.746-10.746-28.17 0-38.916L53.598 8.548c10.746-10.746 28.169-10.746 38.915 0z" fill="#3FAAAC"/><path d="M88.864 12.68c8.673 8.672 8.673 22.733 0 31.405L68.46 64.49c-1.26 1.261-1.849 1.587-2.556 1.801a3.635 3.635 0 0 1-2.139 0c-.707-.214-1.296-.54-2.556-1.8L37.055 40.335c-1.26-1.261-1.587-1.85-1.801-2.557a3.635 3.635 0 0 1 0-2.138c.214-.708.54-1.296 1.801-2.557L57.459 12.68c8.672-8.673 22.733-8.673 31.405 0z" fill="#FFFDF1"/></g></svg>