<svg width="73" height="73" viewBox="0 0 73 73" xmlns="http://www.w3.org/2000/svg"><title>Combined Shape 2</title><g fill-rule="nonzero" fill="none"><path d="M8.817 59.53c-11.58-14.148-10.72-35.102 2.545-48.367C24.628-2.102 45.582-2.963 59.728 8.617L8.817 59.53zM64.82 13.708c11.58 14.147 10.72 35.1-2.546 48.366C49.01 75.34 28.055 76.2 13.908 64.62L64.82 13.71z" fill="#FF6665"/><path d="M59.446 8.335a9.084 9.084 0 0 0 2.192 3.464l-49.64 49.64c-.806-.807-1.96-1.538-3.464-2.193L59.446 8.335zm5.656 5.656L14.191 64.903c-.655-1.503-1.386-2.658-2.192-3.465L61.638 11.8a9.084 9.084 0 0 0 3.464 2.192z" fill="#FF8C8B"/></g></svg>