<svg width="109" height="123" viewBox="0 0 109 123" xmlns="http://www.w3.org/2000/svg"><title>Group</title><g fill-rule="nonzero" fill="none"><path d="M51.705 12.074L103.7 81.076c8.51 11.292 6.253 27.343-5.038 35.852-11.292 8.509-27.343 6.253-35.852-5.039L10.814 42.887a6.4 6.4 0 1 1-7.703-10.222l40.89-30.813a6.4 6.4 0 1 1 7.704 10.222z" fill="#004A5F"/><path d="M14.965 40.42l33.223-25.036L88.215 68.5a1 1 0 0 1-.798 1.602H40.002c-1.165 0-1.577-.055-2.028-.182a3.52 3.52 0 0 1-1.218-.611c-.372-.286-.662-.583-1.359-1.516L14.965 40.42z" fill="#DCFEFF"/></g></svg>