<svg xmlns="http://www.w3.org/2000/svg" viewBox="0 0 288 288"><style>.st0{fill:#006477}.st1{fill:#fff}.st2{fill:#64d0b1}.st3{fill:#3faaac}.st4{opacity:.92;fill:#006477}</style><g id="screen"><path class="st0" d="M285.1 26.2h2.9V24h-2.9v2.2z"/><path class="st0" d="M277.8 247.3c-1.2 0-2.1-1-2.1-2.1v-21c0-1.2 1-2.1 2.1-2.1H288V43.8h-7.2c-1.2 0-1.9-.7-1.8-1.8V25.6c0-1.2.6-1.8 1.8-1.8h2.7c0-.1 0-.2.1-.3.2-.6.6-1 1.3-1h3.2V0h-27.8v5.9c0 1.2-.7 1.8-1.8 1.8h-14.6c-1.2 0-1.9-.7-1.8-1.8v-6h-75v11.2c0 1.2-1 2.1-2.1 2.1h-1.6l-3.5 3.5-.1-3.5h-15.7c-1.2 0-2.1-1-2.1-2.1V0H62c-5.4 5-8.6 6.5-14.3 12.1-.5.5-1.3.5-1.9 0C40.1 6.5 36.9 5 31.5 0H0v22.5h3.3c.7 0 1.1.4 1.3 1.3h2.7c1.3 0 1.8.6 1.8 1.8v5h.2c.4 0 .8.4.8.8s-.4.8-.8.8h-.1V42c0 1.2-.7 1.8-1.8 1.8H0V222h10.8c1.2 0 2.1 1 2.1 2.1v21c0 1.2-1 2.1-2.1 2.1H9.2l-3.5 3.5-.1-3.5H0V288h31.5c-.5-.4-.9-.9-1.4-1.3-4.5-4.4-4.5-13.4 0-17.8 4.5-4.3 11.7-4.4 16.2-.1 0-.4.4-.7.8-.7.3 0 .5.2.6.4 4.5-3.9 11.5-3.7 15.8.5 4.5 4.4 4.5 13.4 0 17.8-.5.5-1 .9-1.4 1.3h79.7v-9.8c0-1.2 1-2.1 2.1-2.1h21c1.2 0 2.1 1 2.1 2.1v9.8h75v-10.5c0-1.2.6-1.8 1.8-1.8h2.7c0-.1 0-.2.1-.3.2-.6.6-1 1.3-1h6.5c.7 0 1.1.4 1.3 1.3h2.7c1.3 0 1.8.6 1.8 1.8V288H288v-40.7h-10.2z"/><path class="st0" d="M286.5 92.2c.5 0 .9.4.9.8s-.4.8-.8.8-.8-.4-.8-.8.3-.8.7-.8zM280 92.2h.5c.4 0 .8.4.8.8s-.4.8-.8.8h-.1-.4c-.4 0-.8-.4-.8-.8s.4-.8.8-.8zM277.5 30.2c.5 0 .9.4.9.8s-.4.8-.8.8-.8-.4-.8-.8.3-.8.7-.8zM248.1 92.2c.5 0 .9.4.9.8s-.4.8-.8.8-.8-.4-.8-.8.3-.8.7-.8zM245.3 30.2h.2c.4 0 .8.4.8.8s-.4.8-.8.8h-.2c-.4 0-.8-.4-.8-.8s.3-.8.8-.8zM241.7 92.2c.5 0 .9.4.9.8s-.4.8-.8.8-.8-.4-.8-.8.3-.8.7-.8zM238.9 30.2c.5 0 .9.4.9.8s-.4.8-.8.8-.8-.4-.8-.8.2-.8.7-.8z"/><circle class="st0" cx="241.7" cy="123.3" r="6.8"/><path class="st0" d="M242.3 146.4c-.4 0-.8-.3-.8-.8v-.1c0-.4.4-.8.8-.8s.8.4.8.8-.4.9-.8.9zM243.1 152c0 .4-.4.8-.8.8s-.8-.3-.8-.8c0-.4.4-.8.8-.8s.8.4.8.8zM242.3 140.1c-.4 0-.8-.4-.8-.8v-.2c0-.4.4-.8.8-.8s.8.4.8.8v.2c0 .4-.4.8-.8.8zM242.3 133.5c-.4 0-.8-.3-.8-.7v-.1c0-.4.4-.8.8-.8s.8.4.8.8-.4.8-.8.8zM239.5 154.9c0 .4-.4.8-.8.8h-.2c-.4 0-.8-.4-.8-.8s.4-.8.8-.8h.2c.5 0 .8.3.8.8zM235.2 92.2h.2c.4 0 .8.4.8.8s-.4.8-.8.8h-.2c-.4 0-.8-.4-.8-.8s.4-.8.8-.8zM232.5 30.2c.5 0 .9.4.9.8s-.4.8-.8.8-.8-.4-.8-.8.2-.8.7-.8zM226 30.2h.2c.4 0 .8.4.8.8s-.4.8-.8.8h-.2c-.4 0-.8-.4-.8-.8s.3-.8.8-.8zM219.5 30.2c.5 0 .9.4.9.8s-.4.8-.8.8-.8-.4-.8-.8.3-.8.7-.8zM213.2 31.8c0-.4.4-.8.8-.8s.8.4.8.8-.4.8-.8.8-.8-.3-.8-.8zM213.2 38.2c0-.4.4-.8.8-.8s.8.4.8.8v.2c0 .4-.4.8-.8.8s-.8-.4-.8-.8v-.2zM213.2 44.7c0-.4.4-.8.8-.8s.8.4.8.8-.4.8-.8.8-.8-.3-.8-.8zM213.2 51.1c0-.4.4-.8.8-.8s.8.4.8.8-.4.8-.8.8-.8-.3-.8-.8zM213.2 57.5c0-.4.4-.8.8-.8s.8.4.8.8v.2c0 .4-.4.8-.8.8s-.8-.4-.8-.8v-.2zM213.2 64c0-.4.4-.8.8-.8s.8.4.8.8-.4.8-.8.8-.8-.3-.8-.8zM213.2 70.4c0-.4.4-.8.8-.8s.8.4.8.8-.4.8-.8.8-.8-.3-.8-.8zM213.2 76.8c0-.4.4-.8.8-.8s.8.4.8.8v.2c0 .4-.4.8-.8.8s-.8-.4-.8-.8v-.2zM209.3 54.2h.2c.4 0 .8.4.8.8s-.4.8-.8.8h-.2c-.4 0-.8-.4-.8-.8s.4-.8.8-.8zM202.9 54.2c.5 0 .9.4.9.8s-.4.8-.8.8-.8-.4-.8-.8.3-.8.7-.8zM196.5 54.2c.5 0 .9.4.9.8s-.4.8-.8.8-.8-.4-.8-.8.3-.8.7-.8z"/><path class="st0" d="M197.1 81.9c4.5-4.4 11.8-4.4 16.3 0l.4.4.4-.4c4.5-4.4 11.8-4.4 16.3 0s4.5 13.4 0 17.8c-6.4 6.2-9.5 7.4-15.8 13.4-.5.5-1.3.5-1.9 0-6.2-6-9.4-7.3-15.8-13.4-4.5-4.4-4.5-13.4.1-17.8zM233 154.9c0 .4-.4.8-.8.8s-.8-.4-.8-.8.3-.8.8-.8h.1c.4 0 .7.3.7.8zM226.6 154.9c0 .4-.4.8-.8.8s-.8-.4-.8-.8.3-.8.8-.8h.1c.3 0 .7.3.7.8zM220.1 154.9c0 .4-.4.8-.8.8h-.2c-.4 0-.8-.4-.8-.8s.4-.8.8-.8h.2c.5 0 .8.3.8.8zM213.7 212.5c-.4 0-.8-.4-.8-.8v-.2c0-.4.4-.8.8-.8s.8.4.8.8v.2c0 .4-.3.8-.8.8zM214.5 218c0 .5-.4.9-.8.9s-.8-.4-.8-.8.4-.8.8-.8.8.3.8.7zM213.7 206c-.4 0-.8-.4-.8-.8s.4-.8.8-.8.8.3.8.8v.1c0 .4-.3.7-.8.7zM213.7 199.6c-.4 0-.8-.4-.8-.8s.4-.8.8-.8.8.3.8.8v.1c0 .3-.3.7-.8.7zM213.7 193.2c-.4 0-.8-.4-.8-.8v-.2c0-.4.4-.8.8-.8s.8.4.8.8v.2c0 .4-.3.8-.8.8zM213.7 186.7c-.4 0-.8-.4-.8-.8s.4-.8.8-.8.8.3.8.8v.1c0 .3-.3.7-.8.7zM213.7 180.3c-.4 0-.8-.4-.8-.8s.4-.8.8-.8.8.3.8.8v.1c0 .3-.3.7-.8.7zM213.7 173.9c-.4 0-.8-.4-.8-.8v-.2c0-.4.4-.8.8-.8s.8.4.8.8v.2c0 .4-.3.8-.8.8zM213.7 167.4c-.4 0-.8-.4-.8-.8s.4-.8.8-.8.8.3.8.8v.1c0 .3-.3.7-.8.7zM213.7 161c-.4 0-.8-.4-.8-.8s.4-.8.8-.8.8.3.8.8v.1c0 .3-.3.7-.8.7zM213.7 148c-.4 0-.8-.4-.8-.8s.4-.8.8-.8.8.3.8.8v.1c0 .4-.3.7-.8.7zM213.7 141.6c-.4 0-.8-.4-.8-.8s.4-.8.8-.8.8.3.8.7v.1c0 .5-.3.8-.8.8zM213.7 135.2c-.4 0-.8-.4-.8-.8v-.2c0-.4.4-.8.8-.8s.8.4.8.8v.2c0 .5-.3.8-.8.8zM213.7 128.7c-.4 0-.8-.4-.8-.8s.4-.8.8-.8.8.3.8.7v.1c0 .5-.3.8-.8.8zM213.7 122.3c-.4 0-.8-.4-.8-.8s.4-.8.8-.8.8.3.8.7v.1c0 .5-.3.8-.8.8zM213.7 115.9c-.4 0-.8-.4-.8-.8v-.2c0-.4.4-.8.8-.8s.8.4.8.8v.2c0 .4-.3.8-.8.8zM207.2 154.9c0 .4-.4.8-.8.8s-.8-.4-.8-.8.3-.8.8-.8h.1c.4 0 .7.3.7.8zM200.8 154.9c0 .4-.4.8-.8.8h-.2c-.4 0-.8-.4-.8-.8s.4-.8.8-.8h.2c.4 0 .8.3.8.8zM193.4 154.1c.5 0 .9.4.9.8s-.4.8-.8.8-.8-.4-.8-.8.3-.8.7-.8z"/><path class="st0" d="M191.7 90.4h.2c.4 0 .8.4.8.8s-.4.8-.8.8h-.2c-.4 0-.8-.4-.8-.8s.4-.8.8-.8zM172.4 90.4h.2c.4 0 .8.4.8.8s-.4.8-.8.8h-.2c-.4 0-.8-.4-.8-.8s.4-.8.8-.8zM166 90.4c.4 0 .8.4.8.8s-.3.8-.8.8c-.4 0-.8-.4-.8-.8s.4-.8.8-.8zM159.6 90.4c.4 0 .8.4.8.8s-.3.8-.8.8h-.1c-.4 0-.8-.4-.8-.8s.5-.8.9-.8zM155.2 14.6c0-.4.4-.8.8-.8s.8.4.8.8v.2c0 .4-.4.8-.8.8s-.8-.4-.8-.8v-.2zM155.2 21.1c0-.4.4-.8.8-.8s.8.4.8.8-.4.8-.8.8-.8-.3-.8-.8zM155.2 27.5c0-.4.4-.8.8-.8s.8.4.8.8-.4.8-.8.8-.8-.3-.8-.8zM155.2 33.9c0-.4.4-.8.8-.8s.8.4.8.8v.2c0 .4-.4.8-.8.8s-.8-.4-.8-.8v-.2zM155.2 40.4c0-.4.4-.8.8-.8s.8.4.8.8-.4.8-.8.8-.8-.3-.8-.8zM155.2 46.8c0-.4.4-.8.8-.8s.8.4.8.8-.4.8-.8.8-.8-.3-.8-.8zM155.2 53.2c0-.4.4-.8.8-.8s.8.4.8.8v.2c0 .4-.4.8-.8.8s-.8-.4-.8-.8v-.2zM155.2 59.7c0-.4.4-.8.8-.8s.8.4.8.8-.4.8-.8.8-.8-.3-.8-.8zM155.2 66.1c0-.4.4-.8.8-.8s.8.4.8.8-.4.9-.8.9-.8-.3-.8-.9zM153.1 90.4h.2c.4 0 .8.4.8.8s-.4.8-.8.8h-.2c-.4 0-.8-.4-.8-.8s.4-.8.8-.8zM150.9 73.2c.5 0 .9.4.9.8s-.4.8-.8.8-.8-.4-.8-.8.2-.8.7-.8zM146.7 90.4c.4 0 .8.4.8.8s-.3.8-.8.8h-.1c-.4 0-.8-.4-.8-.8s.5-.8.9-.8zM144.5 73.2c.5 0 .9.4.9.8s-.4.8-.8.8-.8-.4-.8-.8.2-.8.7-.8zM140.3 90.4c.4 0 .8.4.8.8s-.3.8-.7.8h-.1c-.4 0-.8-.4-.8-.8s.3-.8.8-.8zM138 73.2h.2c.4 0 .8.4.8.8s-.4.8-.8.8h-.2c-.4 0-.8-.4-.8-.8s.3-.8.8-.8zM133.8 90.4h.2c.4 0 .8.4.8.8s-.4.8-.8.8h-.2c-.4 0-.8-.4-.8-.8s.3-.8.8-.8zM131.5 73.2c.5 0 .9.4.9.8s-.4.8-.8.8-.8-.4-.8-.8.3-.8.7-.8zM129.4 156.1c0-.4.4-.8.8-.8s.8.4.8.8v.2c0 .4-.4.8-.8.8s-.8-.4-.8-.8v-.2zM121 90.4c.4 0 .8.4.8.8s-.3.8-.8.8c-.4 0-.8-.4-.8-.8s.3-.8.8-.8zM114.5 90.4h.2c.4 0 .8.4.8.8s-.4.8-.8.8h-.2c-.4 0-.8-.4-.8-.8s.3-.8.8-.8zM108 90.4c.4 0 .8.4.8.8s-.3.8-.7.8h-.1c-.4 0-.8-.4-.8-.8s.4-.8.8-.8zM101.6 90.4c.4 0 .8.4.8.8s-.3.8-.7.8h-.1c-.4 0-.8-.4-.8-.8s.4-.8.8-.8zM75.7 32.5V22.2c0-1.2 1-2.1 2.1-2.1h21c1.2 0 2.1 1 2.1 2.1v21c0 1.2-1 2.1-2.1 2.1h-1.6l-3.5 3.5-.1-3.5H77.8c-1.2 0-2.1-1-2.1-2.1V34c-.4 0-.7-.3-.7-.7 0-.4.3-.7.7-.8zM100.3 74c0 .4-.4.8-.8.8h-.2c-.4 0-.8-.4-.8-.8s.4-.8.8-.8h.2c.4 0 .8.4.8.8zM96.1 91.2c0 .4-.4.8-.8.8h-.2c-.4 0-.8-.4-.8-.8s.4-.8.8-.8h.2c.4 0 .8.4.8.8zM93.8 74c0 .4-.4.8-.8.8s-.8-.4-.8-.8.3-.8.7-.8h.1c.4 0 .8.4.8.8zM89.6 91.2c0 .4-.3.8-.7.8h-.1c-.4 0-.8-.4-.8-.8s.4-.8.8-.8.8.4.8.8zM87.4 74c0 .4-.4.8-.8.8s-.8-.4-.8-.8.3-.8.7-.8h.1c.4 0 .8.4.8.8zM83.1 91.2c0 .4-.3.8-.7.8h-.1c-.4 0-.8-.4-.8-.8s.4-.8.8-.8.8.4.8.8zM81 74c0 .4-.4.8-.8.8H80c-.4 0-.8-.4-.8-.8s.4-.8.8-.8h.2c.4 0 .8.4.8.8zM69.4 32.4c.4 0 .8.4.8.8s-.3.8-.7.8h-.1c-.4 0-.8-.4-.8-.8s.4-.8.8-.8zM63 32.4c.4 0 .8.4.8.8s-.3.8-.8.8h-.1c-.4 0-.8-.4-.8-.8.1-.5.5-.9.9-.8zM56.5 32.3h.2c.4 0 .8.4.8.8s-.4.8-.8.8h-.2c-.4 0-.8-.4-.8-.8 0-.5.4-.8.8-.8zM50.1 32.2c.4 0 .8.4.8.8s-.3.8-.7.8h-.1c-.4 0-.8-.4-.8-.8s.4-.8.8-.8zM46.2 16.8c0-.4.4-.8.8-.8s.8.4.8.8-.4.8-.8.8-.8-.3-.8-.8zM46.2 23.2c0-.4.4-.8.8-.8s.8.4.8.8v.2c0 .4-.4.8-.8.8s-.8-.4-.8-.8v-.2zM46.2 29.7c0-.4.4-.8.8-.8s.8.4.8.8-.4.8-.8.8-.8-.3-.8-.8zM30.8 36.4c0 .5-.4.9-.8.9s-.8-.4-.8-.8.4-.8.8-.8.8.3.8.7zM30 43.7c-.4 0-.8-.4-.8-.8s.4-.8.8-.8.8.3.8.7v.1c0 .4-.4.8-.8.8zM30.8 49.2v.2c0 .4-.4.8-.8.8s-.8-.4-.8-.8v-.2c0-.4.4-.8.8-.8s.8.4.8.8zM28.6 30.5h.2c.4 0 .8.4.8.8s-.4.8-.8.8h-.2c-.4 0-.8-.4-.8-.8s.3-.8.8-.8zM22.1 30.5c.5 0 .9.4.9.8s-.4.8-.8.8-.8-.4-.8-.8.3-.8.7-.8zM15.7 30.5c.5 0 .9.4.9.8s-.4.8-.8.8-.8-.3-.8-.8.3-.8.7-.8zM14.2 236.7H14c-.4 0-.8-.4-.8-.8s.4-.8.8-.8h.2c.4 0 .8.4.8.8s-.4.8-.8.8zM20.6 236.7c-.4 0-.8-.4-.8-.8s.3-.8.7-.8h.1c.4 0 .8.4.8.8s-.4.8-.8.8zM27 236.7c-.4 0-.8-.4-.8-.8s.3-.8.7-.8h.1c.4 0 .8.4.8.8s-.4.8-.8.8zM25.3 126.5l-.3 9.8-9.8-9.8h-4.5c-3.2 0-5.9-2.7-5.9-5.9V93.7c-.3-.1-.5-.4-.5-.7 0-.4.2-.7.5-.7V62.1c0-3.2 2.7-5.9 5.9-5.9h18.8c-.1-.1-.2-.3-.2-.4 0-.4.4-.8.8-.8s.8.3.8.7v.1c0 .2-.1.3-.2.4h38.4c3.2 0 5.9 2.7 5.9 5.9v58.5c0 3.2-2.7 5.9-5.9 5.9H25.3zM33.5 236.7h-.2c-.4 0-.8-.4-.8-.8s.4-.8.8-.8h.2c.4 0 .8.4.8.8s-.4.8-.8.8zM39.9 236.7c-.4 0-.8-.4-.8-.8s.3-.8.7-.8h.1c.4 0 .8.4.8.8s-.4.8-.8.8zM47 263.3c-.4 0-.8-.3-.8-.8v-.1c0-.4.4-.8.8-.8s.8.4.8.8-.4.9-.8.9zM47 256.8c-.4 0-.8-.3-.8-.8 0-.4.4-.8.8-.8s.8.4.8.8-.4.8-.8.8zM47.8 249.7c0 .4-.4.8-.8.8s-.8-.4-.8-.8v-.2c0-.4.4-.8.8-.8s.8.4.8.8v.2zM47 243.9c-.4 0-.8-.3-.8-.8v-.1c0-.4.4-.8.8-.8s.8.4.8.8-.4.9-.8.9zM47 237.5c-.4 0-.8-.3-.8-.8v-.1c-.4-.1-.7-.4-.7-.8s.3-.8.7-.8h.1c.4 0 .8.4.8.8.4.1.7.4.7.8 0 .5-.4.9-.8.9zM52.8 236.7h-.2c-.4 0-.8-.4-.8-.8s.4-.8.8-.8h.2c.4 0 .8.4.8.8s-.4.8-.8.8zM59.2 236.7c-.4 0-.8-.4-.8-.8s.3-.8.7-.8h.1c.4 0 .8.4.8.8s-.3.8-.8.8zM62.3 213.1c.4 0 .8.4.8.8v.2c0 .4-.4.8-.8.8s-.8-.4-.8-.8v-.2c0-.4.4-.8.8-.8zM61.5 207.6c0-.5.4-.9.8-.9s.8.4.8.8-.4.8-.8.8-.8-.3-.8-.7zM62.3 219.6c.4 0 .8.4.8.8s-.4.8-.8.8-.8-.3-.8-.8v-.1c0-.3.4-.7.8-.7zM62.3 226c.4 0 .8.4.8.8s-.4.8-.8.8-.8-.3-.8-.8v-.1c0-.3.4-.7.8-.7zM62.3 232.4c.4 0 .8.4.8.8v.2c0 .4-.4.8-.8.8s-.8-.4-.8-.8v-.2c0-.4.4-.8.8-.8zM62.3 238.9c.4 0 .8.4.8.8s-.4.8-.8.8-.8-.3-.8-.8v-.1c0-.3.4-.7.8-.7zM62.5 246.8c-.5 0-.9-.4-.9-.8s.4-.8.8-.8.8.4.8.8-.2.8-.7.8zM69 246.8h-.2c-.4 0-.8-.4-.8-.8s.4-.8.8-.8h.2c.4 0 .8.4.8.8s-.3.8-.8.8zM75.5 246.8c-.5 0-.9-.4-.9-.8s.4-.8.8-.8.8.4.8.8-.3.8-.7.8zM81.9 246.8c-.5 0-.9-.4-.9-.8s.4-.8.8-.8.8.4.8.8-.3.8-.7.8zM88.4 246.8h-.2c-.4 0-.8-.4-.8-.8s.4-.8.8-.8h.2c.4 0 .8.4.8.8s-.4.8-.8.8zM94.8 246.8c-.5 0-.9-.4-.9-.8s.4-.8.8-.8.8.4.8.8-.3.8-.7.8zM101.2 246.8c-.5 0-.9-.4-.9-.8s.4-.8.8-.8.8.4.8.8-.3.8-.7.8z"/><path class="st0" d="M102.2 156.7v41.1c0 3.2-2.7 5.9-5.9 5.9h-4.5l-9.8 9.8-.3-9.8H37.8c-3.2 0-5.9-2.7-5.9-5.9v-58.5c0-3.2 2.7-5.9 5.9-5.9h58.5c3.2 0 5.9 2.7 5.9 5.9v15.8c.4 0 .8.4.8.8s-.4.8-.8.8zM105.9 74.8c-.4 0-.8-.4-.8-.8s.3-.8.7-.8h.1c.4 0 .8.4.8.8s-.4.8-.8.8zM107.7 246.8h-.2c-.4 0-.8-.4-.8-.8s.4-.8.8-.8h.2c.4 0 .8.4.8.8s-.4.8-.8.8zM108.6 156.7c-.4 0-.8-.4-.8-.8s.3-.8.7-.8h.1c.4 0 .8.4.8.8s-.4.8-.8.8zM112.3 74.8c-.4 0-.8-.4-.8-.8s.3-.8.7-.8h.1c.4 0 .8.4.8.8s-.4.8-.8.8zM114.1 246.8c-.5 0-.9-.4-.9-.8s.4-.8.8-.8.8.4.8.8-.3.8-.7.8zM115 156.7c-.4 0-.8-.4-.8-.8s.3-.8.7-.8h.1c.4 0 .8.4.8.8s-.4.8-.8.8zM118.8 74.8h-.2c-.4 0-.8-.4-.8-.8s.4-.8.8-.8h.2c.4 0 .8.4.8.8s-.4.8-.8.8zM120.5 246.8c-.5 0-.9-.4-.9-.8s.4-.8.8-.8.8.4.8.8-.3.8-.7.8zM121.5 156.7h-.2c-.4 0-.8-.4-.8-.8s.4-.8.8-.8h.2c.4 0 .8.4.8.8s-.4.8-.8.8zM125.2 74.8c-.4 0-.8-.4-.8-.8s.3-.8.7-.8h.1c.4 0 .8.4.8.8s-.3.8-.8.8zM127 246.8h-.2c-.4 0-.8-.4-.8-.8s.4-.8.8-.8h.2c.4 0 .8.4.8.8s-.4.8-.8.8zM127.5 92c-.5 0-.9-.4-.9-.8s.4-.8.8-.8.8.4.8.8-.3.8-.7.8zM155 255.2c0 1.2-1 2.1-2.1 2.1h-1.6l-3.5 3.5-.1-3.5H132c-1.2 0-2.1-1-2.1-2.1v-21c0-1.2 1-2.1 2.1-2.1h21c1.2 0 2.1 1 2.1 2.1v21zM156 73.5c-.4 0-.8-.4-.8-.8v-.2c0-.4.4-.8.8-.8s.8.4.8.8v.2c0 .5-.4.8-.8.8zM183.7 48.5c3.4 0 6.2 2.5 6.7 5.8.3.1.6.4.6.7 0 .3-.2.6-.5.7-.2 3.5-3.2 6.4-6.8 6.4-3.8 0-6.8-3-6.8-6.8s3-6.8 6.8-6.8zM187.8 154.9c0 .4-.4.8-.8.8s-.8-.4-.8-.8.3-.8.8-.8h.1c.4 0 .7.3.7.8zM186.2 91.2c0 .4-.3.8-.8.8h-.1c-.4 0-.8-.4-.8-.8s.4-.8.8-.8.9.4.9.8zM180.5 154.1c.4 0 .8.4.8.8s-.3.8-.7.8h-.1c-.4 0-.8-.4-.8-.8s.4-.8.8-.8zM179 92c-.5 0-.9-.4-.9-.8s.4-.8.8-.8.8.4.8.8-.3.8-.7.8zM214.8 261.6c0 .4-.4.8-.8.8s-.8-.4-.8-.8.4-.8.8-.8.8.3.8.8zM214.8 255.2c0 .4-.4.8-.8.8s-.8-.4-.8-.8v-.2c0-.4.4-.8.8-.8s.8.4.8.8v.2zM216 266.8c-.4 0-.8-.4-.8-.8s.3-.8.8-.8h.1c.4 0 .8.4.8.8s-.5.8-.9.8zM222.5 266.8h-.2c-.4 0-.8-.4-.8-.8s.4-.8.8-.8h.2c.4 0 .8.4.8.8s-.4.8-.8.8zM228.9 266.8c-.4 0-.8-.4-.8-.8s.3-.8.8-.8h.1c.4 0 .8.4.8.8s-.5.8-.9.8zM235.3 266.8c-.4 0-.8-.4-.8-.8s.3-.8.8-.8h.1c.4 0 .8.4.8.8s-.5.8-.9.8zM241.8 266.8h-.2c-.4 0-.8-.4-.8-.8s.4-.8.8-.8h.2c.4 0 .8.4.8.8s-.4.8-.8.8zM243.5 251.5h-59.7c-3.2 0-5.9-2.7-5.9-5.9V227c0-3.2 2.7-5.9 5.9-5.9h59.7c3.2 0 5.9 2.7 5.9 5.9v18.6c0 3.2-2.7 5.9-5.9 5.9zM247.4 266c0-.4.3-.8.8-.8h.1c.4 0 .8.4.8.8s-.4.8-.8.8-.9-.4-.9-.8zM249.8 271.6c0 .4-.4.8-.8.8s-.8-.4-.8-.8.4-.8.8-.8.8.3.8.8zM251.5 237.2h-.2c-.4 0-.8-.4-.8-.8s.4-.8.8-.8h.2c.4 0 .8.4.8.8s-.4.8-.8.8zM253.3 30.5c0 .4-.3.7-.7.8-.1.3-.4.5-.7.5-.4 0-.8-.4-.8-.8s.3-.8.7-.8c.1-.4.4-.6.8-.6s.8.4.8.8v.1zM252.5 24.8c-.4 0-.8-.3-.8-.7V24c0-.4.4-.8.8-.8s.8.4.8.8-.4.8-.8.8zM252.5 18.4c-.4 0-.8-.3-.8-.7v-.1c0-.4.4-.8.8-.8s.8.4.8.8-.4.8-.8.8zM253.3 11.2c0 .4-.4.8-.8.8s-.8-.4-.8-.8V11c0-.4.4-.8.8-.8s.8.4.8.8v.2zM254.7 93.8h-.2c-.4 0-.8-.4-.8-.8s.4-.8.8-.8h.2c.4 0 .8.4.8.8s-.4.8-.8.8zM257.9 237.2c-.4 0-.8-.4-.8-.8s.3-.8.8-.8h.1c.4 0 .8.4.8.8s-.5.8-.9.8zM258.3 31.8c-.4 0-.8-.4-.8-.8s.3-.8.8-.8h.1c.4 0 .8.4.8.8s-.5.8-.9.8zM261.1 93.8c-.4 0-.8-.4-.8-.8s.3-.8.8-.8h.1c.4 0 .8.4.8.8s-.4.8-.9.8zM264.3 237.2c-.4 0-.8-.4-.8-.8s.3-.8.8-.8h.1c.4 0 .8.4.8.8s-.5.8-.9.8zM264.8 31.8h-.2c-.4 0-.8-.4-.8-.8s.4-.8.8-.8h.2c.4 0 .8.4.8.8s-.4.8-.8.8zM267.5 93.8c-.4 0-.8-.4-.8-.8s.3-.8.8-.8h.1c.4 0 .8.4.8.8s-.4.8-.9.8zM270.8 237.2h-.2c-.4 0-.8-.4-.8-.8s.4-.8.8-.8h.2c.4 0 .8.4.8.8s-.4.8-.8.8zM271.2 31.8c-.4 0-.8-.4-.8-.8s.3-.8.8-.8h.1c.4 0 .8.4.8.8s-.5.8-.9.8zM274 93.8h-.2c-.4 0-.8-.4-.8-.8s.4-.8.8-.8h.2c.4 0 .8.4.8.8s-.3.8-.8.8zM51.7 0h-1.8c.5.5 1.3.5 1.8 0zM3.1 24H0v2.2h3.1V24zM254.1 276h-6v2.2h6V276zM55 277.7l1.3 3.1c.2.5.7.8 1.2.8h2.7c.7 0 1.3-.6 1.3-1.3 0-.7-.6-1.3-1.3-1.3h-1.8l-2.3-5.9c-.5-1.2-2.2-1.1-2.5.1l-2.9 9.6-2.6-7c-.4-1.2-2.1-1.1-2.5 0l-1 3.1h-2.1l-2.3-5.9c-.4-1.1-2-1.1-2.5 0l-2.3 5.9h-1.8c-.7 0-1.3.6-1.3 1.3 0 .7.6 1.3 1.3 1.3H36c.5 0 1-.3 1.2-.8l1.4-3.6 1.4 3.6c.2.5.7.8 1.2.8h4c.6 0 1.1-.4 1.3-.9l.1-.4 2.7 7.2c.1.2.2.4.3.5h1.8c.2-.2.3-.3.4-.6l3.2-9.6zM200.4 94.7h2.7c.5 0 1-.3 1.2-.8l1.4-3.6 1.4 3.6c.2.5.7.8 1.2.8h4c.6 0 1.1-.4 1.3-.9l.1-.4 2.7 7.2c.5 1.2 2.2 1.1 2.5-.1l2.9-9.7 1.3 3.1c.2.5.7.8 1.2.8h2.7c.7 0 1.3-.6 1.3-1.3 0-.7-.6-1.3-1.3-1.3h-1.8l-2.3-5.9c-.5-1.2-2.2-1.1-2.5.1l-2.9 9.6-2.6-7c-.4-1.2-2.1-1.1-2.5 0l-1 3.1h-2.1l-2.3-5.9c-.4-1.1-2-1.1-2.5 0l-2.3 5.9h-1.8c-.7 0-1.3.6-1.3 1.3-.1.8.5 1.4 1.3 1.4z"/><path class="st1" d="M249.4 245.6V227c0-3.2-2.7-5.9-5.9-5.9h-59.7c-3.2 0-5.9 2.7-5.9 5.9v18.6c0 3.2 2.7 5.9 5.9 5.9h59.7c3.2 0 5.9-2.7 5.9-5.9z"/><path class="st2" d="M75 120.6V62.1c0-3.2-2.7-5.9-5.9-5.9H30.6c-.1.2-.4.4-.6.4s-.5-.1-.6-.4H10.6c-3.2 0-5.9 2.7-5.9 5.9v30.1H5c.4 0 .8.4.8.8s-.4.8-.8.8c-.1 0-.2 0-.3-.1v26.9c0 3.2 2.7 5.9 5.9 5.9h4.5l9.8 9.8.3-9.8H69c3.3 0 6-2.7 6-5.9z"/><path class="st1" d="M76 32.5c.4 0 .8.4.8.8s-.4.8-.8.8H75.7v9.1c0 1.2 1 2.1 2.1 2.1h15.7l.1 3.5 3.5-3.5h1.6c1.2 0 2.1-1 2.1-2.1v-21c0-1.2-1-2.1-2.1-2.1h-21c-1.2 0-2.1 1-2.1 2.1v10.4h.2l.2-.1z"/><path class="st2" d="M152.8 232h-21c-1.2 0-2.1 1-2.1 2.1v21c0 1.2 1 2.1 2.1 2.1h15.7l.1 3.5 3.5-3.5h1.6c1.2 0 2.1-1 2.1-2.1v-21c.2-1.1-.8-2.1-2-2.1zM5.7 250.8l3.5-3.5h1.6c1.2 0 2.1-1 2.1-2.1v-21c0-1.2-1-2.1-2.1-2.1H0v25.3h5.5l.2 3.4z"/><path class="st1" d="M143.8 13.3h15.7l.1 3.5 3.5-3.5h1.6c1.2 0 2.1-1 2.1-2.1V0h-25.3v11.2c.2 1.1 1.1 2.1 2.3 2.1zM235.2 93.8h.2c.4 0 .8-.4.8-.8s-.4-.8-.8-.8h-.2c-.4 0-.8.4-.8.8s.4.8.8.8zM254.7 92.2h-.2c-.4 0-.8.4-.8.8s.4.8.8.8h.2c.4 0 .8-.4.8-.8s-.4-.8-.8-.8zM267.5 92.2c-.5 0-.8.4-.8.8s.4.8.8.8.8-.4.8-.8-.3-.8-.8-.8zM261.1 92.2c-.5 0-.8.4-.8.8s.4.8.8.8.8-.4.8-.8-.3-.8-.8-.8zM274 92.2h-.2c-.4 0-.8.4-.8.8s.4.8.8.8h.2c.4 0 .8-.4.8-.8s-.3-.8-.8-.8zM241.8 93.8c.4 0 .8-.4.8-.8s-.4-.8-.8-.8h-.1c-.4 0-.8.4-.8.8s.5.8.9.8zM248.2 93.8c.4 0 .8-.4.8-.8s-.4-.8-.8-.8h-.1c-.4 0-.8.4-.8.8s.5.8.9.8zM281 93c0 .4-.3.7-.7.8h.1c.4 0 .8-.4.8-.8s-.4-.8-.8-.8h-.1-.1c.5.1.8.4.8.8zM5.8 93c0-.4-.4-.8-.8-.8H4.7c-.3.1-.5.4-.5.7 0 .3.2.6.5.7.1 0 .2.1.3.1.4.1.8-.3.8-.7zM258.3 30.2c-.5 0-.8.4-.8.8s.4.8.8.8.8-.4.8-.8-.4-.8-.8-.8zM251.7 30.5v-.2-.2c-.4 0-.7.4-.7.8s.4.8.8.8c.3 0 .6-.2.7-.5h-.1c-.3.1-.7-.2-.7-.7zM271.2 30.2c-.5 0-.8.4-.8.8s.4.8.8.8.8-.4.8-.8-.4-.8-.8-.8zM277.6 31.8c.4 0 .8-.4.8-.8s-.4-.8-.8-.8h-.1c-.4 0-.8.4-.8.8s.5.8.9.8zM245.3 31.8h.2c.4 0 .8-.4.8-.8s-.4-.8-.8-.8h-.2c-.4 0-.8.4-.8.8s.3.8.8.8zM239 31.8c.4 0 .8-.4.8-.8s-.4-.8-.8-.8h-.1c-.4 0-.8.4-.8.8s.4.8.9.8zM264.8 30.2h-.2c-.4 0-.8.4-.8.8s.4.8.8.8h.2c.4 0 .8-.4.8-.8s-.4-.8-.8-.8zM214 64.8c.4 0 .8-.4.8-.8s-.4-.8-.8-.8-.8.4-.8.8v.1c0 .4.4.7.8.7zM214 51.9c.4 0 .8-.4.8-.8s-.4-.8-.8-.8-.8.4-.8.8v.1c0 .4.4.7.8.7zM214 58.5c.4 0 .8-.4.8-.8v-.2c0-.4-.4-.8-.8-.8s-.8.4-.8.8v.2c0 .4.4.8.8.8zM214 71.3c.4 0 .8-.4.8-.8s-.4-.8-.8-.8-.8.4-.8.8v.1c0 .3.4.7.8.7zM214 77.8c.4 0 .8-.4.8-.8v-.2c0-.4-.4-.8-.8-.8s-.8.4-.8.8v.2c0 .4.4.8.8.8zM214 45.5c.4 0 .8-.4.8-.8s-.4-.8-.8-.8-.8.4-.8.8v.1c0 .4.4.7.8.7zM214 32.6c.4 0 .8-.4.8-.8s-.4-.8-.8-.8-.8.4-.8.8v.1c0 .4.4.7.8.7zM219.6 31.8c.4 0 .8-.4.8-.8s-.4-.8-.8-.8h-.1c-.4 0-.8.4-.8.8s.5.8.9.8zM226 31.8h.2c.4 0 .8-.4.8-.8s-.4-.8-.8-.8h-.2c-.4 0-.8.4-.8.8s.3.8.8.8zM214 39.1c.4 0 .8-.4.8-.8v-.2c0-.4-.4-.8-.8-.8s-.8.4-.8.8v.2c0 .5.4.8.8.8zM232.5 31.8c.4 0 .8-.4.8-.8s-.4-.8-.8-.8h-.1c-.4 0-.8.4-.8.8s.5.8.9.8zM121 92c.5 0 .8-.4.8-.8s-.4-.8-.8-.8-.8.4-.8.8.3.8.8.8zM153.1 92h.2c.4 0 .8-.4.8-.8s-.4-.8-.8-.8h-.2c-.4 0-.8.4-.8.8s.4.8.8.8zM127.4 90.4c-.4 0-.8.4-.8.8s.4.8.8.8h.1c.4 0 .7-.4.7-.8s-.4-.8-.8-.8zM159.6 92c.5 0 .8-.4.8-.8s-.4-.8-.8-.8-.8.4-.8.8.4.8.8.8zM114.5 92h.2c.4 0 .8-.4.8-.8s-.4-.8-.8-.8h-.2c-.4 0-.8.4-.8.8s.3.8.8.8zM133.8 92h.2c.4 0 .8-.4.8-.8s-.4-.8-.8-.8h-.2c-.4 0-.8.4-.8.8s.3.8.8.8zM191.7 92h.2c.4 0 .8-.4.8-.8s-.4-.8-.8-.8h-.2c-.4 0-.8.4-.8.8s.4.8.8.8zM108 92c.5 0 .8-.4.8-.8s-.4-.8-.8-.8-.8.4-.8.8.4.8.8.8zM172.4 92h.2c.4 0 .8-.4.8-.8s-.4-.8-.8-.8h-.2c-.4 0-.8.4-.8.8s.4.8.8.8zM166 92c.5 0 .8-.4.8-.8s-.4-.8-.8-.8-.8.4-.8.8.4.8.8.8zM95.1 90.4c-.4 0-.8.4-.8.8s.4.8.8.8h.2c.4 0 .8-.4.8-.8s-.4-.8-.8-.8h-.2zM101.6 92c.5 0 .8-.4.8-.8s-.4-.8-.8-.8-.8.4-.8.8.4.8.8.8zM184.5 91.2c0 .4.4.8.8.8h.1c.4 0 .8-.4.8-.8s-.4-.8-.8-.8-.9.4-.9.8zM178.9 90.4c-.4 0-.8.4-.8.8s.4.8.8.8h.1c.4 0 .8-.4.8-.8s-.4-.8-.9-.8zM81.5 91.2c0 .4.4.8.8.8h.1c.4 0 .7-.4.7-.8s-.4-.8-.8-.8-.8.4-.8.8zM87.9 91.2c0 .4.4.8.8.8h.1c.4 0 .7-.4.7-.8s-.4-.8-.8-.8-.8.4-.8.8zM140.3 92c.5 0 .8-.4.8-.8s-.4-.8-.8-.8-.8.4-.8.8.3.8.8.8zM146.7 92c.5 0 .8-.4.8-.8s-.4-.8-.8-.8-.8.4-.8.8.4.8.8.8z"/><circle class="st1" cx="241.7" cy="123.3" r="6.8"/><path class="st1" d="M183.7 62.1c3.6 0 6.5-2.8 6.8-6.4-.1 0-.2.1-.3.1h-.2c-.4 0-.8-.4-.8-.8s.4-.8.8-.8h.4c-.5-3.3-3.3-5.8-6.7-5.8-3.8 0-6.8 3-6.8 6.8s3 6.9 6.8 6.9zM214.5 198.7c0-.4-.4-.8-.8-.8s-.8.4-.8.8.4.8.8.8.8-.3.8-.8zM214.5 205.1c0-.4-.4-.8-.8-.8s-.8.4-.8.8.4.8.8.8.8-.2.8-.8zM213.7 217.3c-.4 0-.8.4-.8.8s.4.8.8.8.8-.4.8-.8v-.1c0-.4-.3-.7-.8-.7zM214.5 192.2c0-.4-.4-.8-.8-.8s-.8.4-.8.8v.2c0 .4.4.8.8.8s.8-.4.8-.8v-.2zM214.5 211.5c0-.4-.4-.8-.8-.8s-.8.4-.8.8v.2c0 .4.4.8.8.8s.8-.4.8-.8v-.2zM214.5 127.8c0-.4-.4-.7-.8-.7s-.8.4-.8.8.4.8.8.8.8-.3.8-.9zM214.5 134.3c0-.4-.4-.8-.8-.8s-.8.4-.8.8v.2c0 .4.4.8.8.8s.8-.4.8-.8v-.2zM214.5 140.8c0-.4-.4-.7-.8-.7s-.8.4-.8.8.4.8.8.8.8-.4.8-.9zM214.5 114.9c0-.4-.4-.8-.8-.8s-.8.4-.8.8v.2c0 .4.4.8.8.8s.8-.4.8-.8v-.2zM214.5 121.4c0-.4-.4-.7-.8-.7s-.8.4-.8.8.4.8.8.8.8-.3.8-.9zM214.5 147.2c0-.4-.4-.8-.8-.8s-.8.4-.8.8.4.8.8.8.8-.3.8-.8zM214.5 160.1c0-.4-.4-.8-.8-.8s-.8.4-.8.8.4.8.8.8.8-.3.8-.8zM214.5 172.9c0-.4-.4-.8-.8-.8s-.8.4-.8.8v.2c0 .4.4.8.8.8s.8-.4.8-.8v-.2zM214.5 179.4c0-.4-.4-.8-.8-.8s-.8.4-.8.8.4.8.8.8.8-.3.8-.8zM214.5 166.5c0-.4-.4-.8-.8-.8s-.8.4-.8.8.4.8.8.8.8-.3.8-.8zM214.5 185.8c0-.4-.4-.8-.8-.8s-.8.4-.8.8.4.8.8.8.8-.3.8-.8zM212.8 113.1c.5.5 1.3.5 1.9 0 6.2-6 9.4-7.2 15.8-13.4 4.5-4.4 4.5-13.4 0-17.8s-11.8-4.4-16.3 0l-.4.4-.4-.4c-4.5-4.4-11.8-4.4-16.3 0s-4.5 13.4 0 17.8c6.3 6.1 9.5 7.3 15.7 13.4zM200.4 92h1.8l2.3-5.9c.4-1.1 2-1.1 2.5 0l2.3 5.9h2.1l1-3.1c.4-1.2 2.1-1.2 2.5 0l2.6 7 2.9-9.6c.4-1.2 2-1.3 2.5-.1l2.3 5.9h1.8c.7 0 1.3.6 1.3 1.3 0 .7-.6 1.3-1.3 1.3h-2.7c-.5 0-1-.3-1.2-.8l-1.3-3.1-2.9 9.7c-.4 1.2-2.1 1.3-2.5.1l-2.7-7.2-.1.4c-.2.5-.7.9-1.3.9h-4c-.5 0-1-.3-1.2-.8l-1.4-3.6-1.4 3.6c-.2.5-.7.8-1.2.8h-2.7c-.7 0-1.3-.6-1.3-1.3-.1-.8.5-1.4 1.3-1.4zM47.7 12.1C53.4 6.5 56.6 5 62 0H51.7c-.5.5-1.3.5-1.8 0H31.5c5.4 5 8.6 6.5 14.3 12.1.5.5 1.4.5 1.9 0z"/><path class="st2" d="M243.8 7.8h14.6c1.1 0 1.8-.6 1.8-1.8V.1h-18.3v6c0 1 .7 1.7 1.9 1.7zm1.2-5.2h12.1v1.6H245V2.6z"/><path class="st3" d="M245 2.6h12.1v1.6H245z"/><path class="st1" d="M164.8 276h-21c-1.2 0-2.1 1-2.1 2.1v9.8H167v-9.8c0-1.1-1-2.1-2.2-2.1zM63.4 268.9c-4.3-4.2-11.3-4.3-15.8-.5.1.1.1.3.1.4v.2c0 .4-.4.8-.8.8s-.8-.4-.8-.8v-.2-.1c-4.5-4.2-11.7-4.2-16.2.1-4.5 4.4-4.5 13.4 0 17.8.5.5 1 .9 1.4 1.3h18.4c-.1-.1-.3-.3-.3-.5l-2.7-7.2-.1.4c-.2.5-.7.9-1.3.9h-4c-.5 0-1-.3-1.2-.8l-1.4-3.6-1.4 3.6c-.2.5-.7.8-1.2.8h-2.7c-.7 0-1.3-.6-1.3-1.3 0-.7.6-1.3 1.3-1.3h1.8l2.3-5.9c.4-1.1 2-1.1 2.5 0l2.3 5.9h2.1l1-3.1c.4-1.2 2.1-1.2 2.5 0l2.6 7 2.9-9.6c.4-1.2 2-1.3 2.5-.1l2.3 5.9H60c.7 0 1.3.6 1.3 1.3 0 .7-.6 1.3-1.3 1.3h-2.7c-.5 0-1-.3-1.2-.8l-1.3-3.1-2.9 9.7c-.1.2-.2.4-.4.6H62c.5-.4.9-.9 1.4-1.3 4.6-4.4 4.6-13.4 0-17.8z"/><path class="st2" d="M258.4 275.7h-2.7c-.2-.9-.6-1.3-1.3-1.3h-6.5c-.6 0-1.1.4-1.3 1 0 .1 0 .2-.1.3h-2.7c-1.2 0-1.8.6-1.8 1.8V288h18.3v-10.4c-.1-1.3-.6-1.9-1.9-1.9zm-10.3.3h6v2.2h-6V276zm9 11.8H245v-1.6h12.1v1.6zm.3-4.5h-12.1v-1.6h12.1v1.6z"/><path class="st3" d="M245.3 281.8h12.1v1.6h-12.1zM245 286.2h12.1v1.6H245z"/><path class="st1" d="M9.2 41.9v-9.8c-.4 0-.8-.4-.8-.8s.4-.8.8-.8v-5c0-1.3-.6-1.8-1.8-1.8H4.7c-.2-.9-.6-1.3-1.3-1.3H.1V24h3.1v2.2H.1v3.5h6.4v1.6H0v2.8h6.1v1.6H0v2.8h6.1v1.6H0v3.6h7.4c1.1.1 1.8-.6 1.8-1.8z"/><path class="st3" d="M0 29.8h6.4v1.6H0zM0 34.2h6.1v1.6H0zM0 38.6h6.1v1.6H0z"/><path class="st2" d="M275.7 224.2v21c0 1.2 1 2.1 2.1 2.1H288V222h-10.2c-1.2 0-2.1 1-2.1 2.2z"/><path class="st1" d="M286.6 93.8c.4 0 .8-.4.8-.8s-.4-.8-.8-.8h-.1c-.4 0-.8.4-.8.8s.4.8.9.8zM280 93.8H280.3c.4-.1.7-.4.7-.8s-.3-.7-.7-.8H280c-.4 0-.8.4-.8.8s.4.8.8.8zM283.5 23.5c0 .1 0 .2-.1.3h-2.7c-1.2 0-1.8.6-1.8 1.8V42c0 1.2.7 1.8 1.8 1.8h7.2v-3.6h-6v-1.6h6v-2.8h-6v-1.6h6v-2.8h-5.7v-1.6h5.7v-3.5H285v-2.2h2.9v-1.5h-3.2c-.5-.1-1 .3-1.2.9z"/><path class="st3" d="M282.3 29.8h5.7v1.6h-5.7zM282 34.2h6v1.6h-6zM282 38.6h6v1.6h-6z"/><path class="st1" d="M102.2 155.1v1.6c.4 0 .8-.4.8-.8s-.4-.8-.8-.8zM108.6 155.1c-.5 0-.8.4-.8.8s.4.8.8.8.8-.4.8-.8-.4-.8-.8-.8zM121.5 155.1h-.2c-.4 0-.8.4-.8.8s.4.8.8.8h.2c.4 0 .8-.4.8-.8s-.4-.8-.8-.8zM115 155.1c-.5 0-.8.4-.8.8s.4.8.8.8.8-.4.8-.8-.4-.8-.8-.8zM47 235.9h.1c0-.4-.4-.8-.8-.8h-.1c-.4 0-.7.4-.7.8s.3.7.7.8c0-.4.4-.8.8-.8zM20.6 235.1c-.5 0-.8.4-.8.8s.4.8.8.8.8-.4.8-.8-.4-.8-.8-.8zM14.2 235.1H14c-.4 0-.8.4-.8.8s.4.8.8.8h.2c.4 0 .8-.4.8-.8s-.4-.8-.8-.8zM39.9 235.1c-.5 0-.8.4-.8.8s.4.8.8.8.8-.4.8-.8-.4-.8-.8-.8zM27 235.1c-.5 0-.8.4-.8.8s.4.8.8.8.8-.4.8-.8-.4-.8-.8-.8zM59.2 235.1c-.5 0-.8.4-.8.8s.4.8.8.8.8-.4.8-.8-.3-.8-.8-.8zM33.5 235.1h-.2c-.4 0-.8.4-.8.8s.4.8.8.8h.2c.4 0 .8-.4.8-.8s-.4-.8-.8-.8zM52.8 235.1h-.2c-.4 0-.8.4-.8.8s.4.8.8.8h.2c.4 0 .8-.4.8-.8s-.4-.8-.8-.8zM130.2 157.1c.4 0 .8-.4.8-.8v-.2c0-.4-.4-.8-.8-.8s-.8.4-.8.8v.2c0 .4.4.8.8.8zM243.1 139.1c0-.4-.4-.8-.8-.8s-.8.4-.8.8v.2c0 .4.4.8.8.8s.8-.4.8-.8v-.2zM242.3 144.8c-.4 0-.8.4-.8.8v.1c0 .4.4.8.8.8s.8-.4.8-.8-.4-.9-.8-.9zM242.3 151.2c-.4 0-.8.4-.8.8v.1c0 .4.4.8.8.8s.8-.4.8-.8-.4-.9-.8-.9zM232.1 154.1c-.4 0-.8.4-.8.8s.4.8.8.8.8-.4.8-.8-.2-.8-.8-.8zM199.8 154.1c-.4 0-.8.4-.8.8s.4.8.8.8h.2c.4 0 .8-.4.8-.8s-.4-.8-.8-.8h-.2zM242.3 131.9c-.4 0-.8.4-.8.8v.1c0 .4.4.7.8.7s.8-.4.8-.8-.4-.8-.8-.8zM219.2 154.1c-.4 0-.8.4-.8.8s.4.8.8.8h.2c.4 0 .8-.4.8-.8s-.4-.8-.8-.8h-.2zM180.5 155.7c.5 0 .8-.4.8-.8s-.4-.8-.8-.8-.8.4-.8.8.4.8.8.8zM206.3 154.1c-.4 0-.8.4-.8.8s.4.8.8.8.8-.4.8-.8-.2-.8-.8-.8zM238.6 154.1c-.4 0-.8.4-.8.8s.4.8.8.8h.2c.4 0 .8-.4.8-.8s-.4-.8-.8-.8h-.2zM187 154.1c-.4 0-.8.4-.8.8s.4.8.8.8.8-.4.8-.8-.3-.8-.8-.8zM193.5 155.7c.4 0 .8-.4.8-.8s-.4-.8-.8-.8h-.1c-.4 0-.8.4-.8.8s.4.8.9.8zM225.7 154.1c-.4 0-.8.4-.8.8s.4.8.8.8.8-.4.8-.8-.3-.8-.8-.8zM47 24.1c.4 0 .8-.4.8-.8v-.2c0-.4-.4-.8-.8-.8s-.8.4-.8.8v.2c0 .5.4.8.8.8zM50.1 33.8c.1 0 .1 0 0 0 .5 0 .8-.3.8-.8 0-.4-.4-.8-.8-.8s-.8.3-.8.8c0 .4.4.8.8.8zM47 17.6c.4 0 .8-.4.8-.8s-.4-.8-.8-.8-.8.4-.8.8v.1c0 .4.4.7.8.7zM56.5 33.9h.2c.4 0 .8-.3.8-.8 0-.4-.3-.8-.8-.8h-.2c-.5 0-.8.3-.8.8 0 .4.4.8.8.8zM69.4 34c.1 0 .1 0 0 0 .5 0 .8-.3.8-.8 0-.4-.4-.8-.8-.8s-.8.3-.8.8c0 .4.4.8.8.8zM63 33.9c.1 0 .1 0 0 0 .5 0 .8-.3.8-.8 0-.4-.4-.8-.8-.8s-.8.3-.8.8.4.8.8.8zM47 30.5c.4 0 .8-.4.8-.8s-.4-.8-.8-.8-.8.4-.8.8v.1c0 .4.4.7.8.7zM75.7 34H76c.4 0 .8-.3.8-.8 0-.4-.3-.8-.8-.8h-.4c-.4.1-.6.4-.6.8 0 .5.3.8.7.8zM102.2 139.4c0-3.2-2.7-5.9-5.9-5.9H37.8c-3.2 0-5.9 2.7-5.9 5.9v58.5c0 3.2 2.7 5.9 5.9 5.9h43.8l.3 9.8 9.8-9.8h4.5c3.2 0 5.9-2.7 5.9-5.9v-58.5zM81.8 245.2c-.4 0-.8.4-.8.8s.4.8.8.8h.1c.4 0 .7-.4.7-.8s-.4-.8-.8-.8zM69 245.2h-.2c-.4 0-.8.4-.8.8s.4.8.8.8h.2c.4 0 .8-.4.8-.8s-.3-.8-.8-.8zM62.5 245.2c-.4 0-.8.4-.8.8s.4.8.8.8h.1c.4 0 .7-.4.7-.8s-.4-.8-.8-.8zM61.5 239.8c0 .4.4.8.8.8s.8-.4.8-.8-.4-.8-.8-.8-.8.3-.8.8zM114 245.2c-.4 0-.8.4-.8.8s.4.8.8.8h.1c.4 0 .7-.4.7-.8s-.4-.8-.8-.8zM61.5 233.4c0 .4.4.8.8.8s.8-.4.8-.8v-.2c0-.4-.4-.8-.8-.8s-.8.4-.8.8v.2zM101.1 245.2c-.4 0-.8.4-.8.8s.4.8.8.8h.1c.4 0 .7-.4.7-.8s-.4-.8-.8-.8zM94.7 245.2c-.4 0-.8.4-.8.8s.4.8.8.8h.1c.4 0 .7-.4.7-.8s-.4-.8-.8-.8zM61.5 220.5c0 .4.4.8.8.8s.8-.4.8-.8-.4-.8-.8-.8-.8.3-.8.8zM120.4 245.2c-.4 0-.8.4-.8.8s.4.8.8.8h.1c.4 0 .7-.4.7-.8s-.3-.8-.8-.8zM61.5 226.9c0 .4.4.8.8.8s.8-.4.8-.8-.4-.8-.8-.8-.8.3-.8.8zM61.5 214.1c0 .4.4.8.8.8s.8-.4.8-.8v-.2c0-.4-.4-.8-.8-.8s-.8.4-.8.8v.2zM75.4 245.2c-.4 0-.8.4-.8.8s.4.8.8.8h.1c.4 0 .7-.4.7-.8s-.4-.8-.8-.8zM88.4 245.2h-.2c-.4 0-.8.4-.8.8s.4.8.8.8h.2c.4 0 .8-.4.8-.8s-.4-.8-.8-.8z"/><path class="st1" d="M62.3 208.3c.4 0 .8-.4.8-.8s-.4-.8-.8-.8-.8.4-.8.8v.1c0 .4.4.7.8.7zM107.7 245.2h-.2c-.4 0-.8.4-.8.8s.4.8.8.8h.2c.4 0 .8-.4.8-.8s-.4-.8-.8-.8zM127 245.2h-.2c-.4 0-.8.4-.8.8s.4.8.8.8h.2c.4 0 .8-.4.8-.8s-.4-.8-.8-.8zM99.3 73.2c-.4 0-.8.4-.8.8s.4.8.8.8h.2c.4 0 .8-.4.8-.8s-.4-.8-.8-.8h-.2zM156 15.5c.4 0 .8-.4.8-.8v-.2c0-.4-.4-.8-.8-.8s-.8.4-.8.8v.2c0 .5.4.8.8.8zM156 67c.4 0 .8-.4.8-.8s-.4-.8-.8-.8-.8.4-.8.8v.1c0 .4.4.7.8.7zM151 74.8c.4 0 .8-.4.8-.8s-.4-.8-.8-.8h-.1c-.4 0-.8.4-.8.8s.4.8.9.8zM156 21.9c.4 0 .8-.4.8-.8s-.4-.8-.8-.8-.8.4-.8.8v.1c0 .4.4.7.8.7zM93 73.2c-.5 0-.8.4-.8.8s.4.8.8.8.8-.4.8-.8-.4-.8-.8-.8zM156 60.6c.4 0 .8-.4.8-.8s-.4-.8-.8-.8-.8.4-.8.8v.1c0 .3.4.7.8.7zM112.3 73.2c-.5 0-.8.4-.8.8s.4.8.8.8.8-.4.8-.8-.4-.8-.8-.8zM138 74.8h.2c.4 0 .8-.4.8-.8s-.4-.8-.8-.8h-.2c-.4 0-.8.4-.8.8s.3.8.8.8zM144.5 74.8c.4 0 .8-.4.8-.8s-.4-.8-.8-.8h-.1c-.4 0-.7.4-.7.8s.4.8.8.8zM86.5 73.2c-.4 0-.7.4-.7.8s.4.8.8.8.8-.4.8-.8-.4-.8-.9-.8zM105.9 73.2c-.5 0-.8.4-.8.8s.4.8.8.8.8-.4.8-.8-.4-.8-.8-.8zM80 73.2c-.4 0-.8.4-.8.8s.4.8.8.8h.2c.4 0 .8-.4.8-.8s-.4-.8-.8-.8H80zM118.8 73.2h-.2c-.4 0-.8.4-.8.8s.4.8.8.8h.2c.4 0 .8-.4.8-.8s-.4-.8-.8-.8zM156 28.3c.4 0 .8-.4.8-.8s-.4-.8-.8-.8-.8.4-.8.8v.1c0 .4.4.7.8.7zM156 34.9c.4 0 .8-.4.8-.8v-.2c0-.4-.4-.8-.8-.8s-.8.4-.8.8v.2c0 .4.4.8.8.8zM156 47.6c.4 0 .8-.4.8-.8s-.4-.8-.8-.8-.8.4-.8.8v.1c0 .4.4.7.8.7zM156 41.2c.4 0 .8-.4.8-.8s-.4-.8-.8-.8-.8.4-.8.8v.1c0 .4.4.7.8.7zM156 54.2c.4 0 .8-.4.8-.8v-.2c0-.4-.4-.8-.8-.8s-.8.4-.8.8v.2c0 .4.4.8.8.8zM125.2 73.2c-.5 0-.8.4-.8.8s.4.8.8.8.8-.4.8-.8-.3-.8-.8-.8zM131.6 74.8c.4 0 .8-.4.8-.8s-.4-.8-.8-.8h-.1c-.4 0-.7.4-.7.8s.4.8.8.8zM156.8 72.6c0-.4-.4-.8-.8-.8s-.8.4-.8.8v.2c0 .4.4.8.8.8s.8-.4.8-.8v-.2zM28.6 32.1h.2c.4 0 .8-.4.8-.8s-.4-.8-.8-.8h-.2c-.4 0-.8.4-.8.8s.3.8.8.8zM30 48.4c-.4 0-.8.4-.8.8v.2c0 .4.4.8.8.8s.8-.4.8-.8v-.2c0-.4-.4-.8-.8-.8zM29.2 36.5c0 .4.4.8.8.8s.8-.4.8-.8v-.1c0-.4-.4-.7-.8-.7s-.8.3-.8.8zM30.8 42.8c0-.4-.4-.7-.8-.7s-.8.4-.8.8.4.8.8.8.8-.4.8-.9zM22.2 32.1c.4 0 .8-.4.8-.8s-.4-.8-.8-.8h-.1c-.4 0-.7.4-.7.8s.4.8.8.8zM15.8 32.1c.4 0 .8-.4.8-.8s-.4-.8-.8-.8h-.1c-.4 0-.7.4-.7.8s.4.8.8.8zM30 56.6c.3 0 .5-.1.6-.4.1-.1.2-.3.2-.4v-.1c0-.4-.4-.7-.8-.7s-.8.4-.8.8c0 .2.1.3.2.4.1.2.3.4.6.4zM8.4 31.3c0 .4.4.8.8.8h.2c.4 0 .8-.4.8-.8s-.4-.8-.8-.8h-.2c-.4.1-.8.4-.8.8zM203 55.8c.4 0 .8-.4.8-.8s-.4-.8-.8-.8h-.1c-.4 0-.8.4-.8.8s.5.8.9.8zM196.6 55.8c.4 0 .8-.4.8-.8s-.4-.8-.8-.8h-.1c-.4 0-.8.4-.8.8s.4.8.9.8zM209.3 55.8h.2c.4 0 .8-.4.8-.8s-.4-.8-.8-.8h-.2c-.4 0-.8.4-.8.8s.4.8.8.8zM190 54.2c-.4 0-.8.4-.8.8s.4.8.8.8h.2c.1 0 .2 0 .3-.1.3-.1.5-.4.5-.7 0-.4-.2-.6-.6-.7h-.4zM47 248.7c-.4 0-.8.4-.8.8v.2c0 .4.4.8.8.8s.8-.4.8-.8v-.2c0-.4-.4-.8-.8-.8zM47 242.3c-.4 0-.8.4-.8.8v.1c0 .4.4.8.8.8s.8-.4.8-.8-.4-.9-.8-.9zM47.1 235.9H47c-.4 0-.8.4-.8.8v.1c0 .4.4.8.8.8s.8-.4.8-.8c0-.5-.3-.8-.7-.9zM47 261.6c-.4 0-.8.4-.8.8v.1c0 .4.4.8.8.8s.8-.4.8-.8-.4-.9-.8-.9zM47 255.2c-.4 0-.8.4-.8.8v.1c0 .4.4.8.8.8s.8-.4.8-.8-.4-.9-.8-.9zM46.2 269c0 .4.4.8.8.8s.8-.4.8-.8v-.2c0-.2-.1-.3-.1-.4-.1-.2-.4-.4-.6-.4-.4 0-.7.3-.8.7V269zM252.5 23.2c-.4 0-.8.4-.8.8s.4.7.8.7.8-.4.8-.8-.4-.7-.8-.7zM252.5 16.8c-.4 0-.8.4-.8.8v.1c0 .4.4.7.8.7s.8-.4.8-.8-.4-.8-.8-.8zM252.5 10.3c-.4 0-.8.4-.8.8v.2c0 .4.4.8.8.8s.8-.4.8-.8v-.2c0-.5-.4-.8-.8-.8zM252.5 29.6c-.4 0-.7.3-.8.6v.4c0 .4.4.8.8.8h.1c.4 0 .7-.4.7-.8v-.2c0-.5-.4-.8-.8-.8zM249 270.8c-.4 0-.8.4-.8.8s.4.8.8.8.8-.4.8-.8v-.1c0-.4-.4-.7-.8-.7zM222.5 265.2h-.2c-.4 0-.8.4-.8.8s.4.8.8.8h.2c.4 0 .8-.4.8-.8s-.4-.8-.8-.8zM228.9 265.2c-.5 0-.8.4-.8.8s.4.8.8.8.8-.4.8-.8-.4-.8-.8-.8zM216 265.2c-.5 0-.8.4-.8.8s.4.8.8.8.8-.4.8-.8-.4-.8-.8-.8zM241.8 265.2h-.2c-.4 0-.8.4-.8.8s.4.8.8.8h.2c.4 0 .8-.4.8-.8s-.4-.8-.8-.8zM249 266c0-.4-.4-.8-.8-.8h-.1c-.4 0-.8.4-.8.8s.4.8.8.8.9-.4.9-.8zM214 254.2c-.4 0-.8.4-.8.8v.2c0 .4.4.8.8.8s.8-.4.8-.8v-.2c0-.4-.4-.8-.8-.8zM235.3 265.2c-.5 0-.8.4-.8.8s.4.8.8.8.8-.4.8-.8-.4-.8-.8-.8zM214 260.7c-.4 0-.8.4-.8.8s.4.8.8.8.8-.4.8-.8v-.1c0-.3-.4-.7-.8-.7zM251.5 235.6h-.2c-.4 0-.8.4-.8.8s.4.8.8.8h.2c.4 0 .8-.4.8-.8s-.4-.8-.8-.8zM264.3 235.6c-.5 0-.8.4-.8.8s.4.8.8.8.8-.4.8-.8-.4-.8-.8-.8zM270.8 235.6h-.2c-.4 0-.8.4-.8.8s.4.8.8.8h.2c.4 0 .8-.4.8-.8s-.4-.8-.8-.8zM257.9 235.6c-.5 0-.8.4-.8.8s.4.8.8.8.8-.4.8-.8-.4-.8-.8-.8z"/><g id="Layer_4"><path class="st1" d="M170.7 177.9c-8.9-.1-17.8-.1-26.7 0-2.1 0-3.4-1.2-3.4-3.3v-30c0-2.2 1.1-3.3 3.3-3.3h5c.1-.2.1-.3.1-.5.3-1.1 1.2-1.8 2.3-1.8h11.9c1.3 0 2.1.7 2.5 2.3h4.9c2.3 0 3.3 1 3.3 3.4v29.9c.2 2.1-1.1 3.3-3.2 3.3z"/><path class="st0" d="M162.9 141.8h-11v4.1h11v-4.1z"/><path class="st3" d="M146.8 152.3h22v2.9h-22zM146.3 160.4h22v2.9h-22zM146.3 168.5h22v2.9h-22z"/></g><path class="st4" d="M0 0h288v288H0z"/></g></svg>