<svg viewBox="0 0 246.32 208" xmlns="http://www.w3.org/2000/svg"><path d="M225.14 16.16H20.79A18.7 18.7 0 0 0 2.14 34.81v121.7a18.7 18.7 0 0 0 18.65 18.65H171.3l8.92 27.63 22.68-27.63h22.24a18.7 18.7 0 0 0 18.65-18.65V34.81a18.7 18.7 0 0 0-18.65-18.65z" fill="#ffd600"/><path d="M141 19.75a21.78 21.78 0 0 0-27.56 3.76C106 31.24 99 39.39 91.89 47.35c-.2.23-.36.49-.54.72q8.76 9.76 17.47 19.43c10.82-11.07 28.23-14.35 41.71-9.63a91.55 91.55 0 0 0 2.38-10C154.86 36.59 150 25.38 141 19.75z" fill="#fff"/><path d="M138.34 9.48c-12.22-3.85-22.82-.2-31.74 9.68Q87.4 40.45 68.29 61.84a38 38 0 0 0-4.45 5.9C57 79.28 56.29 91.49 62 103.62c5.83 12.33 15.52 18.48 28.05 18.7 2.38 0 3.7-.52 5.77-1a54.56 54.56 0 0 1-1.82-24c.59-8.91 3.18-16.27 12.77-27.67.64-.76 1.31-1.48 2-2.18q-8.71-9.69-17.47-19.43c.18-.23.34-.49.54-.72C99 39.39 106 31.24 113.4 23.51a21.78 21.78 0 0 1 27.6-3.76c9 5.63 13.9 16.84 11.94 28.16-.47 2.72-2.23 9.48-2.38 10 2.16.75 4.06 1 6.55 1.92.26-.52.48-.93.67-1.35 8.67-19.12-.78-43.1-19.44-49z" fill="#3faaac"/><g fill="#ff6665"><path d="M173.57 79.28c12.53 15.6 14.52 43.41-2.51 62.69-15 16.94-41.08 18-56.1 2.71zM168.35 73.36l-58.75 65.26c-12.6-15.36-14.29-42.87 1.69-61.86 14.83-17.62 41.71-19.3 57.06-3.4z"/></g></svg>