<svg width="278" height="185" viewBox="0 0 278 185" xmlns="http://www.w3.org/2000/svg" xmlns:xlink="http://www.w3.org/1999/xlink"><title>Group 29</title><defs><path d="M.91 128.135l-.003-.762C.907 57.087 57.886.11 128.172.11s127.264 56.978 127.264 127.264c0 .254 0 .508-.002.762H.91z" id="a"/></defs><g fill="none" fill-rule="evenodd"><path d="M233.427 162.064l-7.5 7.5 15 15 15-15-7.5-7.5-7.5 7.5-7.5-7.5z" fill="#FFD600"/><g transform="translate(11 11.555)"><use fill="#F7FFF6" xlink:href="#a"/><path stroke="#40798C" stroke-width="11" d="M-4.59 128.168l.032 5.467H260.902l.032-5.467.002-.795c0-73.323-59.44-132.764-132.764-132.764-73.324 0-132.765 59.44-132.765 132.764l.003.795z"/><path d="M206.701 62.701c14.789 17.729 23.686 40.542 23.686 65.434" stroke="#FFD600" stroke-width="11"/><path d="M127.5 114.5l111.187 13.186" stroke="#1F363D" stroke-width="4" stroke-linecap="square"/><circle fill="#1F363D" cx="128.5" cy="114.5" r="9.5"/></g></g></svg>