<svg width="2924" height="1024" viewBox="0 0 2924 1024" xmlns="http://www.w3.org/2000/svg"><title>Logo-2017-Dark</title><g fill="none" fill-rule="evenodd"><path fill="#3FAAAC" d="M705.198 160.88l351.794 351.795L705.436 864.23 353.642 512.437z"/><path fill="#91CCCF" d="M409.675 160.88L761.47 512.674 409.914 864.23 58.119 512.436z"/><path d="M761.37 512.575l295.622.1-351.794-351.794-147.762 147.76-147.76-147.76L58.118 512.437l703.35.238-.1-.1z" fill="#FFF" opacity=".138"/><path d="M557.675 716.47L353.642 512.437l203.794-203.795L761.47 512.675 557.675 716.47z" fill="#FFFA00"/><path d="M1361.459 661.49V363.27H1297V661.49h64.459zm62.585-243.856h66.012v-54.363h-66.012v54.363zm65.236 243.856V452.97h-64.46v208.52h64.46zm82.389 0h64.458V496.848h45.432V452.97h-45.432v-21.745c0-17.474 6.602-24.852 28.347-24.852 6.99 0 12.425.777 17.085 1.942V363.27c-8.543-2.33-19.027-4.271-34.56-4.271-52.809 0-75.33 27.181-75.33 71.06v22.91h-36.89v43.878h36.89V661.49zm204.317-124.258c2.718-26.016 15.532-42.325 40.772-42.325 26.404 0 36.5 16.309 38.83 42.325h-79.602zm95.523 58.246c-12.814 17.085-29.123 24.075-46.985 24.075-31.841 0-45.044-17.086-48.538-43.879h140.566c1.165-6.601 1.553-15.92 1.553-24.463 0-57.857-33.006-102.513-100.959-102.513-68.73 0-105.619 46.209-105.619 109.114 0 64.07 37.277 107.949 111.055 107.949 43.102 0 69.507-14.756 88.146-36.889l-39.22-33.394zM2033.5 661.49V363.27h-64.458V661.49h64.458zm62.586-243.856h66.012v-54.363h-66.012v54.363zm65.235 243.856V452.97h-64.458v208.52h64.458zm63.363 0h64.458V534.514c0-21.745 13.98-37.666 37.666-37.666 19.803 0 30.288 13.203 30.288 29.9V661.49h64.458V519.758c0-42.713-28.734-71.06-72.613-71.06-27.181 0-49.315 12.038-62.517 33.006h-.777l-1.164-28.734h-59.8v208.52zm387.208 0h74.555l-66.012-108.726 62.905-99.794h-73.778l-43.878 78.437h-16.697V363.271h-64.459V661.49h64.459v-86.204h16.697l46.208 86.204z" fill="#F7FFF6"/></g></svg>