<svg width="56" height="57" viewBox="0 0 56 57" xmlns="http://www.w3.org/2000/svg"><title>Group 6</title><g fill="#FF6665" fill-rule="nonzero"><path d="M19.282.047h17.436c.446 0 .607.046.77.133.163.087.291.215.378.378.088.163.134.325.134.77v53.437c0 .445-.046.607-.134.77a.909.909 0 0 1-.378.378c-.163.087-.324.134-.77.134H19.282c-.446 0-.607-.047-.77-.134a.909.909 0 0 1-.378-.378c-.088-.163-.134-.325-.134-.77V1.329c0-.446.046-.608.134-.77a.909.909 0 0 1 .378-.379c.163-.087.324-.133.77-.133z"/><path d="M56 19.329v17.436c0 .445-.046.607-.134.77a.909.909 0 0 1-.378.378c-.163.087-.324.134-.77.134H1.282c-.446 0-.607-.047-.77-.134a.909.909 0 0 1-.378-.378C.046 37.372 0 37.21 0 36.765V19.329c0-.446.046-.608.134-.77a.909.909 0 0 1 .378-.379c.163-.087.324-.133.77-.133h53.436c.446 0 .607.046.77.133.163.087.291.215.378.378.088.163.134.325.134.77z"/></g></svg>