<svg width="160" height="145" viewBox="0 0 160 145" xmlns="http://www.w3.org/2000/svg" xmlns:xlink="http://www.w3.org/1999/xlink"><title>Group 4</title><defs><path d="M20.511 0H139.49c7.132 0 9.718.743 12.326 2.137a14.538 14.538 0 0 1 6.048 6.048C159.257 10.793 160 13.38 160 20.511V120H20.511c-7.132 0-9.718-.743-12.326-2.137a14.538 14.538 0 0 1-6.048-6.048C.743 109.207 0 106.62 0 99.489V20.51c0-7.132.743-9.718 2.137-12.326a14.538 14.538 0 0 1 6.048-6.048C10.793.743 13.38 0 20.511 0z" id="a"/><filter x="-6.2%" y="-8.3%" width="112.5%" height="116.7%" filterUnits="objectBoundingBox" id="b"><feGaussianBlur stdDeviation="8" in="SourceAlpha" result="shadowBlurInner1"/><feOffset dy="-4" in="shadowBlurInner1" result="shadowOffsetInner1"/><feComposite in="shadowOffsetInner1" in2="SourceAlpha" operator="arithmetic" k2="-1" k3="1" result="shadowInnerInner1"/><feColorMatrix values="0 0 0 0 0 0 0 0 0 0.305882353 0 0 0 0 0.392156863 0 0 0 0.2 0" in="shadowInnerInner1"/></filter><linearGradient x1="50%" y1="31.111%" x2="50%" y2=".053%" id="d"><stop stop-color="#004C61" stop-opacity="0" offset="0%"/><stop stop-color="#004C62" offset="100%"/></linearGradient><path id="c" d="M128 120h32l-32 24z"/></defs><g fill-rule="nonzero" fill="none"><g transform="matrix(-1 0 0 1 160 .875)"><use fill="#004E64" xlink:href="#a"/><use fill="#000" filter="url(#b)" xlink:href="#a"/></g><g transform="matrix(-1 0 0 1 160 .875)"><use fill="#004E64" xlink:href="#c"/><use fill="url(#d)" style="mix-blend-mode:multiply" xlink:href="#c"/></g></g></svg>