<svg width="160" height="145" viewBox="0 0 160 145" xmlns="http://www.w3.org/2000/svg"><title>healthcare</title><defs><linearGradient x1="50%" y1="31.111%" x2="50%" y2=".053%" id="a"><stop stop-color="#004C61" stop-opacity="0" offset="0%"/><stop stop-color="#004C62" offset="100%"/></linearGradient></defs><g fill="none" fill-rule="evenodd"><g fill="#004E64"><path d="M20.511.875H139.49c7.132 0 9.718.743 12.326 2.137a14.538 14.538 0 0 1 6.048 6.048c1.394 2.608 2.137 5.194 2.137 12.326v99.49H20.511c-7.132 0-9.718-.743-12.326-2.138a14.538 14.538 0 0 1-6.048-6.048C.743 110.082 0 107.496 0 100.364V21.386c0-7.132.743-9.718 2.137-12.326a14.538 14.538 0 0 1 6.048-6.048C10.793 1.618 13.38.875 20.511.875z"/><path d="M20.511.875H139.49c7.132 0 9.718.743 12.326 2.137a14.538 14.538 0 0 1 6.048 6.048c1.394 2.608 2.137 5.194 2.137 12.326v99.49H20.511c-7.132 0-9.718-.743-12.326-2.138a14.538 14.538 0 0 1-6.048-6.048C.743 110.082 0 107.496 0 100.364V21.386c0-7.132.743-9.718 2.137-12.326a14.538 14.538 0 0 1 6.048-6.048C10.793 1.618 13.38.875 20.511.875z"/></g><path d="M128 120.875h32l-32 24z" fill="#004E64"/><path d="M0 0h32L0 24z" style="mix-blend-mode:multiply" fill="url(#a)" transform="translate(128 120.875)"/></g></svg>