<svg width="160" height="145" viewBox="0 0 160 145" xmlns="http://www.w3.org/2000/svg"><title>pharma</title><defs><linearGradient x1="50%" y1="31.111%" x2="50%" y2="0%" id="a"><stop stop-color="#FFD600" stop-opacity="0" offset="0%"/><stop stop-color="#FFD600" offset="100%"/></linearGradient></defs><g fill="none" fill-rule="evenodd"><g fill="#FFD600"><path d="M139.489.875H20.51c-7.132 0-9.718.743-12.326 2.137A14.538 14.538 0 0 0 2.137 9.06C.743 11.668 0 14.254 0 21.386v99.49h139.489c7.132 0 9.718-.743 12.326-2.138a14.538 14.538 0 0 0 6.048-6.048c1.394-2.608 2.137-5.194 2.137-12.326V21.386c0-7.132-.743-9.718-2.137-12.326a14.538 14.538 0 0 0-6.048-6.048C149.207 1.618 146.62.875 139.489.875z"/><path d="M139.489.875H20.51c-7.132 0-9.718.743-12.326 2.137A14.538 14.538 0 0 0 2.137 9.06C.743 11.668 0 14.254 0 21.386v99.49h139.489c7.132 0 9.718-.743 12.326-2.138a14.538 14.538 0 0 0 6.048-6.048c1.394-2.608 2.137-5.194 2.137-12.326V21.386c0-7.132-.743-9.718-2.137-12.326a14.538 14.538 0 0 0-6.048-6.048C149.207 1.618 146.62.875 139.489.875z"/></g><path d="M32 120.875H0l32 24z" fill="#FFD600"/><path d="M0 .875h32l-32 24z" style="mix-blend-mode:multiply" fill="url(#a)" transform="matrix(-1 0 0 1 32 120)"/></g></svg>