<svg width="160" height="145" viewBox="0 0 160 145" xmlns="http://www.w3.org/2000/svg" xmlns:xlink="http://www.w3.org/1999/xlink"><title>Group 3</title><defs><path d="M20.511.875H139.49c7.132 0 9.718.743 12.326 2.137a14.538 14.538 0 0 1 6.048 6.048c1.394 2.608 2.137 5.194 2.137 12.326v99.49H20.511c-7.132 0-9.718-.743-12.326-2.138a14.538 14.538 0 0 1-6.048-6.048C.743 110.082 0 107.496 0 100.364V21.386c0-7.132.743-9.718 2.137-12.326a14.538 14.538 0 0 1 6.048-6.048C10.793 1.618 13.38.875 20.511.875z" id="a"/><filter x="-6.2%" y="-8.3%" width="112.5%" height="116.7%" filterUnits="objectBoundingBox" id="b"><feGaussianBlur stdDeviation="8" in="SourceAlpha" result="shadowBlurInner1"/><feOffset dy="-4" in="shadowBlurInner1" result="shadowOffsetInner1"/><feComposite in="shadowOffsetInner1" in2="SourceAlpha" operator="arithmetic" k2="-1" k3="1" result="shadowInnerInner1"/><feColorMatrix values="0 0 0 0 1 0 0 0 0 0.839215686 0 0 0 0 0 0 0 0 0.2 0" in="shadowInnerInner1"/></filter><linearGradient x1="50%" y1="31.111%" x2="50%" y2="0%" id="d"><stop stop-color="#FFD600" stop-opacity="0" offset="0%"/><stop stop-color="#FFD600" offset="100%"/></linearGradient><path id="c" d="M128 120.875h32l-32 24z"/></defs><g fill-rule="nonzero" fill="none"><use fill="#FFD600" xlink:href="#a"/><use fill="#000" filter="url(#b)" xlink:href="#a"/><g><use fill="#FFD600" xlink:href="#c"/><use fill="url(#d)" style="mix-blend-mode:multiply" xlink:href="#c"/></g></g></svg>